<svg xmlns="http://www.w3.org/2000/svg" id="Ebene_1" data-name="Ebene 1" viewBox="0 0 710 112.45">
  <defs>
    <style>
      .cls-1{fill:#1c4f6a}
    </style>
  </defs>
  <path d="M400 59.58a33.34 33.34 0 0 0-2.06-12.12 30.77 30.77 0 0 0-5.78-9.81 25.88 25.88 0 0 0-8.92-6.55 26.62 26.62 0 0 0-11.33-2.31h-9.38a28.63 28.63 0 0 0-11.33 2.31 26.14 26.14 0 0 0-9 6.57 30.77 30.77 0 0 0-5.78 9.81 35 35 0 0 0-2.16 12.12v23.1a37.09 37.09 0 0 0 2.22 12 26.15 26.15 0 0 0 15 15.31 29.76 29.76 0 0 0 11.2 2.08H372a30.88 30.88 0 0 0 11-2.09 26.35 26.35 0 0 0 14.95-15.31 32.57 32.57 0 0 0 2.06-12V65.15Zm-13.16 23.23a16.88 16.88 0 0 1-1.23 6.5 17.91 17.91 0 0 1-3.23 5.34 14.7 14.7 0 0 1-4.67 3.45 13.76 13.76 0 0 1-5.85 1.3h-9.31a13.76 13.76 0 0 1-5.85-1.3 15.48 15.48 0 0 1-4.84-3.53 16.3 16.3 0 0 1-3.17-5.27 18.68 18.68 0 0 1-1.16-6.57V59.58a22.12 22.12 0 0 1 1.15-6.85 18.45 18.45 0 0 1 3.24-5.85 17 17 0 0 1 4.84-4 11.84 11.84 0 0 1 5.71-1.44h9.38a11.8 11.8 0 0 1 5.76 1.4 15.94 15.94 0 0 1 4.77 4 22.67 22.67 0 0 1 3.23 5.89 19.83 19.83 0 0 1 1.23 6.78v23.3ZM321.62 30a6.7 6.7 0 0 0-4.08 1.38 6 6 0 0 0-2.24 3.24l-9.39 32.08-9.23 31.3c-.35 1.2-1.53 1.2-2 0l-9-30.75-9.5-32.45a6.62 6.62 0 1 0-12.7 3.68l8.59 29.37 10 34.41a13.22 13.22 0 0 0 5.1 7.11 14.35 14.35 0 0 0 16.92 0 13.5 13.5 0 0 0 5.15-7.15l10.69-35.95L328 38.92a7.62 7.62 0 0 0 .29-2.17 6.7 6.7 0 0 0-6.67-6.75Zm-68.73 38.76V7.16a6.58 6.58 0 0 0-2.06-4.91 6.87 6.87 0 0 0-9.27 0 6.18 6.18 0 0 0-2.05 4.91V28.6h-23a28.55 28.55 0 0 0-10.18 1.87 25.68 25.68 0 0 0-8.59 5.53 26.54 26.54 0 0 0-5.92 9 31.83 31.83 0 0 0-2.06 11.91v23.64a38 38 0 0 0 1.33 10 35.77 35.77 0 0 0 4.48 10.3 26 26 0 0 0 8.3 8.08 24.21 24.21 0 0 0 12.84 3.32h27.18a9.13 9.13 0 0 0 9-9V68.76ZM217 98.82a11.72 11.72 0 0 1-9.67-4.91 23.5 23.5 0 0 1-4.17-13.79V56.86a17.26 17.26 0 0 1 1.15-6.36 17.79 17.79 0 0 1 3-4.91 12.61 12.61 0 0 1 4.18-3.09 12.18 12.18 0 0 1 5.15-1.08h23v57.4Zm-37.38-45.18a28.28 28.28 0 0 0-1.73-9.81 24.53 24.53 0 0 0-4.84-8 22.24 22.24 0 0 0-7.44-5.29 24 24 0 0 0-9.52-1.94h-27.86a6.27 6.27 0 0 0-6.43 6.12v.37a6 6 0 0 0 5.52 6.44h.07a7.1 7.1 0 0 0 1.13 0h27.57a8.6 8.6 0 0 1 7.36 3.39 14.92 14.92 0 0 1 2.81 9.27v8.66H142a23.82 23.82 0 0 0-9.74 2.06 23.13 23.13 0 0 0-7.87 5.34 24.62 24.62 0 0 0-7.15 17.51 26.38 26.38 0 0 0 .54 5.17s0 0 0 .08v.1a24.56 24.56 0 0 0 6.44 11.95 24.86 24.86 0 0 0 17.68 7.16h28.94a8.67 8.67 0 0 0 8.76-8.55V75.75Zm-13.29 24.27v21.22h-24.44a12.3 12.3 0 0 1-4.57-.88 10.58 10.58 0 0 1-3.69-2.46 10.76 10.76 0 0 1-2.46-3.63 12.28 12.28 0 0 1-.66-4.23v-.94a12.42 12.42 0 0 1 .79-4 10.38 10.38 0 0 1 2.45-3.67 11.66 11.66 0 0 1 3.75-2.53 10.78 10.78 0 0 1 4.48-.94h24.32v2.06l.33-.06Zm298.48-42.33H446c-8.2 0-13.73 1.54-18.18 6.64s-5.78 11.2-5.78 19V77.1c0 7.11 1.35 14.43 6 19.85 4.36 5.09 11.15 6.42 17.9 6.42h18.84c2.26 0 4 1.88 4 4.42a4 4 0 0 1-4 4.17H446c-8.91 0-18.42-1.64-24.54-8.3-6.51-7.1-8.1-17-8.1-26.7V61.24c0-9.27 1.79-18.66 8-25.4s15.54-8.71 24.64-8.71h18.9a3.93 3.93 0 0 1 3.89 4.22 4 4 0 0 1-3.98 4.23Z" class="cls-1"/>
  <path id="Pfad_153" d="M490.54 31.34a4.13 4.13 0 0 1 3.82-4.19h30.54a23.07 23.07 0 0 1 9.16 1.85 19.74 19.74 0 0 1 7.15 5.14 24.67 24.67 0 0 1 4.7 7.72 27.76 27.76 0 0 1 1.7 9.68v53.82a6.47 6.47 0 0 1-6.29 6.64h-31.65a24.46 24.46 0 0 1-9.38-1.8 22.83 22.83 0 0 1-7.68-5.06 24.07 24.07 0 0 1 17-41h29.08v-12a18.59 18.59 0 0 0-3.69-11.8 12.11 12.11 0 0 0-10.17-4.77H495c-2.94-.04-4.46-1.41-4.46-4.23Zm48.22 72.09V72.77h-29a15.29 15.29 0 0 0-6 1.22 16.11 16.11 0 0 0-4.92 3.32 14.66 14.66 0 0 0-3.23 4.91 15.4 15.4 0 0 0-1.15 6 14.94 14.94 0 0 0 9.27 14 15.4 15.4 0 0 0 6 1.15h29Z" class="cls-1" data-name="Pfad 153"/>
  <path id="Pfad_154" d="M627 105.1a7.17 7.17 0 0 1-7 7h-29.2a23.18 23.18 0 0 1-12.41-3.17 26.21 26.21 0 0 1-8.16-7.94 38.39 38.39 0 0 1-4.55-10.3 42.36 42.36 0 0 1-1.44-10V55.1a31.42 31.42 0 0 1 2.06-11.83 24.63 24.63 0 0 1 5.78-8.73 24.12 24.12 0 0 1 8.3-5.42 26.09 26.09 0 0 1 10-1.8h27.8V4.57a4.51 4.51 0 0 1 1.3-3.24A4.7 4.7 0 0 1 622.61.1a4.39 4.39 0 0 1 4.33 4.43Zm-8.81-69.57h-27.75a16.22 16.22 0 0 0-12.12 5.41 20.11 20.11 0 0 0-3.71 6.21 20.82 20.82 0 0 0-1.48 8v25.13a26.06 26.06 0 0 0 5 16.68 15.63 15.63 0 0 0 12.71 6.35h27.43V35.53Z" class="cls-1" data-name="Pfad 154"/>
  <path id="Pfad_155" d="M671.5 112.1a29.3 29.3 0 0 1-11.11-2 25.49 25.49 0 0 1-8.78-6 26.44 26.44 0 0 1-5.85-9.27 33.41 33.41 0 0 1-2.06-12.12V57.4a34.7 34.7 0 0 1 2.06-12.4 31.59 31.59 0 0 1 5.78-9.88 26.74 26.74 0 0 1 8.8-6.5 25.82 25.82 0 0 1 11.19-2.3h10.17a26 26 0 0 1 19.85 8.81 30.77 30.77 0 0 1 5.78 9.87 36.08 36.08 0 0 1 2.06 12.36v25.39a33.41 33.41 0 0 1-2.06 12.12 26.82 26.82 0 0 1-5.85 9.27 27.49 27.49 0 0 1-8.87 6 28.81 28.81 0 0 1-11 2.06Zm10.17-8.38a17.87 17.87 0 0 0 7.51-1.65 18.37 18.37 0 0 0 6-4.48 22.79 22.79 0 0 0 5.49-14.87V57.39a24.31 24.31 0 0 0-1.51-8.39 27.07 27.07 0 0 0-4-7.21 20.29 20.29 0 0 0-6-5.06 16.11 16.11 0 0 0-7.51-2.06H671.5a15.19 15.19 0 0 0-7.51 2 20.19 20.19 0 0 0-6.06 5 23.51 23.51 0 0 0-4 7.21 25.56 25.56 0 0 0-1.44 8.45v25.4a23.94 23.94 0 0 0 1.44 8.16 20.51 20.51 0 0 0 4 6.72A19.66 19.66 0 0 0 664 102a18.14 18.14 0 0 0 7.51 1.65Z" class="cls-1" data-name="Pfad 155"/>
  <path id="Pfad_156" d="M54.67 27.66V64H18.8v48.4h72.67V27.66Z" class="cls-1" data-name="Pfad 156"/>
  <path fill="#1c4f6a" d="M.61 9.47v36.38h36.37V9.47H.61z" style="isolation:isolate"/>
</svg>
