<?xml version="1.0" encoding="UTF-8"?>
<svg
  width="69px"
  height="32px"
  viewBox="0 0 69 32"
  version="1.1"
  xmlns="http://www.w3.org/2000/svg"
  xmlns:xlink="http://www.w3.org/1999/xlink"
>
  <title>brand-desktop</title>
  <g fill="#005e3f">
    <path
      d="M9.74707692,18.2292308 L16.464,7.94738462 L16.4658462,18.2292308 L9.74707692,18.2292308 Z M14.1636923,4.668 L0,26.2501538 L4.50646154,26.2501538 L7.54092308,21.6064615 L16.4658462,21.6064615 L16.4658462,26.2501538 L20.1889231,26.2501538 L20.1889231,4.668 L14.1636923,4.668 Z M65.6184615,26.2501538 L60.5107692,26.2501538 L60.5095385,26.2501538 L53.5575385,17.0710769 L50.5187692,20.4655385 L50.5243077,26.2501538 L46.7803077,26.2501538 L46.7803077,4.668 L50.5052308,4.668 L50.5144615,14.9061538 L59.6892308,4.668 L64.6627692,4.668 L56.2252308,14.092 L65.6184615,26.2501538 Z M33.408,23.2163077 C29.1686154,23.2163077 25.7329231,19.7424615 25.7329231,15.46 C25.7329231,11.1781538 29.1686154,7.70492308 33.408,7.70492308 C37.6467692,7.70492308 41.0843077,11.1781538 41.0843077,15.46 C41.0843077,19.7424615 37.6467692,23.2163077 33.408,23.2163077 L33.408,23.2163077 Z M33.408,3.92276923 C27.0363077,3.92276923 21.8707692,9.08892308 21.8707692,15.46 C21.8707692,21.8316923 27.0363077,26.9966154 33.408,26.9966154 C39.7784615,26.9966154 44.9446154,21.8316923 44.9446154,15.46 C44.9446154,9.08892308 39.7784615,3.92276923 33.408,3.92276923 L33.408,3.92276923 Z"
    ></path>
  </g>
</svg>
