<?xml version="1.0" encoding="UTF-8" standalone="no"?>
<svg
        xmlns:dc="http://purl.org/dc/elements/1.1/"
        xmlns:cc="http://creativecommons.org/ns#"
        xmlns:rdf="http://www.w3.org/1999/02/22-rdf-syntax-ns#"
        xmlns:svg="http://www.w3.org/2000/svg"
        xmlns="http://www.w3.org/2000/svg"
        xmlns:sodipodi="http://sodipodi.sourceforge.net/DTD/sodipodi-0.dtd"
        xmlns:inkscape="http://www.inkscape.org/namespaces/inkscape"
        inkscape:version="1.0 (4035a4fb49, 2020-05-01)"
        sodipodi:docname="logo_nosoex.svg"
        id="svg75"
        xml:space="preserve"
        style="enable-background:new 0 0 612 199.8;"
        viewBox="0 0 612 199.8"
        y="0px"
        x="0px"
        version="1.1"><metadata
   id="metadata81"><rdf:RDF><cc:Work
       rdf:about=""><dc:format>image/svg+xml</dc:format><dc:type
        rdf:resource="http://purl.org/dc/dcmitype/StillImage"/></cc:Work></rdf:RDF></metadata>
    <defs
            id="defs79"/>
    <sodipodi:namedview
            inkscape:current-layer="svg75"
            inkscape:window-maximized="0"
            inkscape:window-y="0"
            inkscape:window-x="0"
            inkscape:cy="99.900002"
            inkscape:cx="306"
            inkscape:zoom="1.6584967"
            showgrid="false"
            id="namedview77"
            inkscape:window-height="846"
            inkscape:window-width="1668"
            inkscape:pageshadow="2"
            inkscape:pageopacity="0"
            guidetolerance="10"
            gridtolerance="10"
            objecttolerance="10"
            borderopacity="1"
            bordercolor="#666666"
            pagecolor="#ffffff"/>
    <style
            id="style2"
            type="text/css">
	.st0{display:none;}
	.st1{display:inline;fill:#010202;}
	.st2{fill:#004B89;}
	.st3{fill-rule:evenodd;clip-rule:evenodd;fill:#004B89;}
	.st4{fill-rule:evenodd;clip-rule:evenodd;fill:#AFCB37;}
	.st5{fill:#FFFFFF;}
	.st6{fill-rule:evenodd;clip-rule:evenodd;fill:#FFFFFF;}
	.st7{fill:#010202;}
	.st8{fill:#333435;}
	.st9{fill-rule:evenodd;clip-rule:evenodd;fill:#010202;}
	.st10{fill-rule:evenodd;clip-rule:evenodd;fill:#333435;}
</style>
    <g
            class="st0"
            id="BG">
</g>
    <g
            transform="matrix(2.1065322,0,0,2.1065322,-355.73215,-110.14672)"
            id="Ebene_1">
	<g
            id="g25">
		<path
                id="path5"
                d="m 219.6,58.5 v 54.1 c 0,3.1 -1.5,4.7 -4.6,4.7 h -8.1 c -1.3,0 -2.3,-0.3 -3.1,-0.9 -0.7,-0.6 -1.4,-1.6 -2.1,-2.9 L 186.3,82.1 C 184.4,78 183.2,74.9 182.7,73 h -0.9 c 0.4,2.8 0.6,6 0.6,9.4 v 35 H 170 V 63.2 c 0,-3.1 1.6,-4.7 4.7,-4.7 h 7.9 c 1.3,0 2.3,0.3 3.1,0.9 0.7,0.6 1.4,1.6 2.1,2.9 l 14.9,30.4 c 1.4,2.8 2.8,6 4.3,9.5 h 0.9 c -0.3,-4.4 -0.5,-7.7 -0.5,-9.9 V 58.5 Z"
                class="st2"/>
        <path
                id="path7"
                d="m 292.2,101.7 -10.5,-2.8 c -3.9,-1.1 -6.5,-2.7 -8,-4.6 -1.5,-2 -2.2,-4.7 -2.2,-8.1 0,-4.4 1.3,-7.5 4,-9.3 2.7,-1.8 7.3,-2.7 13.9,-2.7 7.6,0.1 14,0.7 19.4,1.6 l -0.9,8.1 c -7.2,-0.1 -12.6,-0.2 -16.2,-0.2 -2,0 -3.4,0 -4.1,0 -0.8,0 -1.5,0.1 -2.3,0.3 -0.8,0.2 -1.2,0.4 -1.4,0.8 -0.2,0.4 -0.3,0.9 -0.3,1.7 0,0.3 0,0.5 0,0.8 0,0.3 0.1,0.4 0.2,0.6 0.1,0.2 0.2,0.4 0.3,0.5 0.1,0.1 0.2,0.2 0.5,0.4 0.2,0.1 0.4,0.2 0.6,0.3 0.1,0.1 0.4,0.2 0.8,0.3 0.4,0.1 0.7,0.2 0.9,0.3 0.2,0.1 0.6,0.2 1.1,0.3 0.5,0.1 1,0.2 1.2,0.3 l 10.7,2.9 c 3.8,1.1 6.4,2.5 8,4.3 1.6,1.8 2.4,4.4 2.4,8 0,5 -1.4,8.4 -4.3,10.2 -2.9,1.8 -7.9,2.7 -14.9,2.7 -6.8,0 -13.1,-0.5 -18.8,-1.4 l 0.8,-8.2 c 2,0.1 6.9,0.2 14.6,0.2 4.4,0 7.2,-0.2 8.6,-0.6 1.3,-0.4 2,-1.2 2,-2.6 0,-0.3 0,-0.5 0,-0.8 0,-0.2 -0.1,-0.4 -0.2,-0.6 -0.1,-0.2 -0.2,-0.4 -0.3,-0.5 -0.1,-0.1 -0.3,-0.2 -0.6,-0.4 -0.3,-0.1 -0.5,-0.3 -0.6,-0.3 -0.1,-0.1 -0.4,-0.2 -0.8,-0.3 -0.4,-0.1 -0.7,-0.2 -0.9,-0.3 -0.2,-0.1 -0.6,-0.2 -1.2,-0.3 -0.8,-0.3 -1.3,-0.4 -1.5,-0.6 z"
                class="st2"/>
        <path
                id="path9"
                d="m 398.5,112.7 0.3,4.3 c -5.3,0.3 -13.7,0.5 -25.1,0.5 -3.1,0 -5.6,-0.9 -7.5,-2.6 -1.9,-1.8 -2.9,-4.1 -2.9,-7.1 V 68.2 c 0,-3 1,-5.3 2.9,-7.1 1.9,-1.8 4.4,-2.6 7.5,-2.6 11.4,0 19.8,0.2 25.1,0.5 l -0.3,4.3 h -23.9 c -3.8,0 -5.7,2.1 -5.7,6.2 v 14.4 h 26.3 v 4.5 H 369 v 18.2 c 0,4.1 1.9,6.1 5.7,6.1 z"
                class="st2"/>
        <polygon
                id="polygon11"
                points="416.8,95.9 403.4,76.1 409.4,76.1 421.1,93.6 423.3,93.6 434.9,76.1 440.9,76.1 427.5,95.9 442,117.3 436,117.3 423.1,98 421.2,98 408.4,117.3 402.4,117.3 "
                class="st2"/>
        <path
                id="path13"
                d="m 247,82.2 z m 0,0 c -6,-0.2 -11.6,3.4 -13.7,9.4 -2.5,7.3 1.3,15.2 8.6,17.7 1.7,0.6 3.4,0.8 5.1,0.8 v 8.2 0 c -2.6,0.1 -5.2,-0.3 -7.8,-1.2 -11.5,-4 -17.7,-16.6 -13.7,-28.1 3.2,-9.3 12.1,-15.1 21.4,-14.9 v 0 8.1 z m 0,27.9 z"
                class="st3"/>
        <path
                id="path15"
                d="m 247,82.2 c 6,-0.3 11.7,3.4 13.8,9.4 2.5,7.3 -1.3,15.2 -8.6,17.7 -1.7,0.6 -3.4,0.8 -5.1,0.8 v 8.2 c 2.6,0.1 5.2,-0.3 7.8,-1.2 11.5,-4 17.7,-16.6 13.7,-28.1 -3.2,-9.3 -12.1,-15.1 -21.5,-14.9 v 8.1 z"
                class="st4"/>
        <g
                id="g21">
			<path
                    id="path17"
                    d="m 336.7,75.9 c 2.4,0.2 4.8,0.7 7,1.7 l 0.8,-1.8 c -2.4,-1.1 -5,-1.7 -7.6,-1.9 -12.4,-0.8 -23.1,8.6 -24,21 v 0 c -0.6,9.6 5.3,18.9 14.8,22.2 2.6,0.9 5.2,1.3 7.8,1.2 v 0 -8.2 c -1.7,0.1 -3.4,-0.2 -5.1,-0.8 -6.1,-2.1 -9.8,-8.1 -9.3,-14.2 v 0 c 0.4,-7 5.9,-12.7 12.8,-13.3 2.5,-0.2 5,0.3 7.3,1.4 l 0.8,-1.8 c -2.6,-1.3 -5.4,-1.8 -8.3,-1.5 -7.9,0.7 -14.2,7.1 -14.7,15 h -4.2 c 0.9,-11.2 10.7,-19.7 21.9,-19 z"
                    class="st2"/>
            <polygon
                    id="polygon19"
                    points=""
                    class="st2"/>
		</g>
        <path
                id="path23"
                d="m 341.2,83.2 c 3.6,1.4 6.6,4.4 8,8.4 2.5,7.3 -1.3,15.2 -8.6,17.7 -1.7,0.6 -3.4,0.8 -5.1,0.8 v 8.2 c 2.6,0.1 5.2,-0.3 7.8,-1.2 11.5,-4 17.7,-16.6 13.7,-28.1 -2.2,-6.2 -6.8,-10.9 -12.5,-13.2 l -3.2,7.4 z"
                class="st4"/>
	</g>
        <g
                id="g65">
		<path
                id="path27"
                d="m 283.3,138.1 c -1.1,0 -2,-0.4 -2.5,-1.3 v 0 0.6 c 0,0.3 0,0.7 0,1.1 v 2.8 h -0.7 v -10.8 h 0.6 l 0.1,1.1 v 0 c 0.5,-0.8 1.3,-1.2 2.4,-1.2 1,0 1.8,0.3 2.3,1 0.5,0.7 0.8,1.6 0.8,2.9 0,1.2 -0.3,2.2 -0.8,2.8 -0.4,0.7 -1.2,1 -2.2,1 z m 0,-0.6 c 0.8,0 1.4,-0.3 1.8,-0.8 0.4,-0.5 0.6,-1.4 0.6,-2.4 0,-2.2 -0.8,-3.3 -2.4,-3.3 -0.9,0 -1.5,0.2 -1.9,0.7 -0.4,0.5 -0.6,1.3 -0.6,2.3 v 0.2 c 0,1.2 0.2,2 0.6,2.5 0.4,0.5 1.1,0.8 1.9,0.8 z"
                class="st2"/>
            <path
                    id="path29"
                    d="m 294.6,134.3 c 0,1.2 -0.3,2.2 -0.9,2.8 -0.6,0.7 -1.4,1 -2.4,1 -0.7,0 -1.2,-0.2 -1.7,-0.5 -0.5,-0.3 -0.9,-0.8 -1.1,-1.4 -0.2,-0.6 -0.4,-1.3 -0.4,-2 0,-1.2 0.3,-2.2 0.9,-2.8 0.6,-0.7 1.4,-1 2.4,-1 1,0 1.8,0.3 2.4,1 0.6,0.7 0.8,1.7 0.8,2.9 z m -5.8,0 c 0,1 0.2,1.8 0.7,2.4 0.4,0.6 1.1,0.9 1.9,0.9 0.8,0 1.5,-0.3 1.9,-0.9 0.4,-0.6 0.7,-1.4 0.7,-2.4 0,-1 -0.2,-1.8 -0.7,-2.4 -0.5,-0.6 -1.1,-0.8 -1.9,-0.8 -0.8,0 -1.5,0.3 -1.9,0.8 -0.5,0.5 -0.7,1.3 -0.7,2.4 z"
                    class="st2"/>
            <path
                    id="path31"
                    d="m 302.6,138 -1.6,-5 c -0.1,-0.3 -0.2,-0.8 -0.4,-1.5 v 0 l -0.1,0.5 -0.3,1 -1.7,5 h -0.7 l -2.1,-7.4 h 0.7 l 1.2,4.3 c 0.3,1.1 0.5,1.9 0.5,2.4 v 0 c 0.3,-1.1 0.5,-1.8 0.6,-2.1 l 1.5,-4.5 h 0.6 l 1.5,4.5 c 0.3,1.1 0.5,1.8 0.6,2.1 v 0 c 0,-0.3 0.2,-1.1 0.5,-2.4 l 1.1,-4.3 h 0.7 l -2,7.4 z"
                    class="st2"/>
            <path
                    id="path33"
                    d="m 309.8,138.1 c -1.1,0 -1.9,-0.3 -2.5,-1 -0.6,-0.7 -0.9,-1.6 -0.9,-2.8 0,-1.2 0.3,-2.1 0.9,-2.8 0.6,-0.7 1.4,-1.1 2.4,-1.1 0.9,0 1.6,0.3 2.1,0.9 0.5,0.6 0.8,1.4 0.8,2.5 v 0.5 h -5.4 c 0,1 0.2,1.8 0.7,2.3 0.5,0.5 1.1,0.8 2,0.8 0.4,0 0.8,0 1.1,-0.1 0.3,-0.1 0.7,-0.2 1.2,-0.4 v 0.6 c -0.4,0.2 -0.8,0.3 -1.2,0.4 -0.4,0.2 -0.7,0.2 -1.2,0.2 z m -0.2,-7.1 c -0.7,0 -1.3,0.2 -1.7,0.7 -0.4,0.5 -0.7,1.2 -0.8,2 h 4.6 c 0,-0.9 -0.2,-1.5 -0.6,-2 -0.3,-0.4 -0.8,-0.7 -1.5,-0.7 z"
                    class="st2"/>
            <path
                    id="path35"
                    d="m 317.4,130.4 c 0.3,0 0.7,0 1,0.1 l -0.1,0.6 c -0.3,-0.1 -0.6,-0.1 -1,-0.1 -0.6,0 -1.2,0.3 -1.6,0.8 -0.4,0.5 -0.6,1.2 -0.6,2 v 4.1 h -0.7 v -7.4 h 0.6 l 0.1,1.3 v 0 c 0.3,-0.5 0.6,-0.9 1,-1.2 0.4,-0.1 0.8,-0.2 1.3,-0.2 z"
                    class="st2"/>
            <path
                    id="path37"
                    d="m 323,138.1 c -1.1,0 -1.9,-0.3 -2.5,-1 -0.6,-0.7 -0.9,-1.6 -0.9,-2.8 0,-1.2 0.3,-2.1 0.9,-2.8 0.6,-0.7 1.4,-1.1 2.4,-1.1 0.9,0 1.6,0.3 2.1,0.9 0.5,0.6 0.8,1.4 0.8,2.5 v 0.5 h -5.4 c 0,1 0.2,1.8 0.7,2.3 0.5,0.5 1.1,0.8 2,0.8 0.4,0 0.8,0 1.1,-0.1 0.3,-0.1 0.7,-0.2 1.2,-0.4 v 0.6 c -0.4,0.2 -0.8,0.3 -1.2,0.4 -0.4,0.2 -0.8,0.2 -1.2,0.2 z m -0.2,-7.1 c -0.7,0 -1.3,0.2 -1.7,0.7 -0.4,0.5 -0.7,1.2 -0.8,2 h 4.6 c 0,-0.9 -0.2,-1.5 -0.6,-2 -0.4,-0.4 -0.9,-0.7 -1.5,-0.7 z"
                    class="st2"/>
            <path
                    id="path39"
                    d="m 330.4,130.4 c 0.5,0 1,0.1 1.4,0.3 0.4,0.2 0.7,0.5 1.1,1 v 0 c 0,-0.6 0,-1.1 0,-1.7 v -2.7 h 0.7 V 138 H 333 l -0.2,-1.1 h -0.1 c -0.6,0.8 -1.4,1.3 -2.4,1.3 -1,0 -1.8,-0.3 -2.4,-1 -0.5,-0.6 -0.8,-1.6 -0.8,-2.8 0,-1.3 0.3,-2.3 0.8,-2.9 0.7,-0.8 1.4,-1.1 2.5,-1.1 z m 0,0.6 c -0.8,0 -1.4,0.3 -1.8,0.9 -0.4,0.6 -0.6,1.4 -0.6,2.5 0,2.1 0.8,3.2 2.5,3.2 0.8,0 1.5,-0.2 1.8,-0.7 0.4,-0.5 0.6,-1.3 0.6,-2.4 v -0.1 c 0,-1.1 -0.2,-2 -0.6,-2.5 -0.5,-0.6 -1.1,-0.9 -1.9,-0.9 z"
                    class="st2"/>
            <path
                    id="path41"
                    d="m 342.8,130.4 c 1,0 1.8,0.3 2.3,1 0.5,0.7 0.8,1.6 0.8,2.9 0,1.2 -0.3,2.2 -0.8,2.9 -0.5,0.7 -1.3,1 -2.3,1 -0.5,0 -1,-0.1 -1.4,-0.3 -0.4,-0.2 -0.8,-0.5 -1,-0.9 h -0.1 l -0.3,1 h -0.4 v -10.6 h 0.7 v 2.7 c 0,0.4 0,0.8 0,1.1 v 0.6 0 c 0.3,-0.4 0.6,-0.8 1,-1 0.4,-0.3 0.9,-0.4 1.5,-0.4 z m -0.1,0.6 c -0.9,0 -1.5,0.3 -1.9,0.8 -0.4,0.5 -0.6,1.3 -0.6,2.5 v 0.1 c 0,1.1 0.2,1.9 0.6,2.4 0.4,0.5 1,0.7 1.8,0.7 0.8,0 1.4,-0.3 1.8,-0.9 0.4,-0.6 0.6,-1.4 0.6,-2.4 0.2,-2.1 -0.6,-3.2 -2.3,-3.2 z"
                    class="st2"/>
            <path
                    id="path43"
                    d="m 346.7,130.6 h 0.7 l 1.6,4.2 c 0.5,1.3 0.8,2.1 0.9,2.6 v 0 c 0.2,-0.6 0.5,-1.5 0.9,-2.6 l 1.6,-4.1 h 0.7 l -3.3,8.6 c -0.3,0.7 -0.5,1.2 -0.7,1.4 -0.2,0.2 -0.4,0.4 -0.6,0.6 -0.2,0.1 -0.5,0.2 -0.9,0.2 -0.3,0 -0.5,0 -0.9,-0.1 v -0.6 c 0.3,0.1 0.5,0.1 0.9,0.1 0.2,0 0.4,-0.1 0.6,-0.2 0.2,-0.1 0.3,-0.3 0.5,-0.5 0.1,-0.2 0.3,-0.6 0.5,-1.1 0.2,-0.5 0.3,-0.8 0.4,-1 z"
                    class="st2"/>
            <path
                    id="path45"
                    d="m 362.1,132.9 h 3.7 v 4.6 c -1,0.4 -2.1,0.6 -3.3,0.6 -1.6,0 -2.8,-0.4 -3.6,-1.3 -0.8,-0.9 -1.3,-2.2 -1.3,-3.8 0,-1 0.2,-1.9 0.6,-2.7 0.4,-0.8 1,-1.4 1.8,-1.8 0.8,-0.4 1.7,-0.6 2.7,-0.6 1.1,0 2.1,0.2 2.9,0.6 l -0.3,0.6 c -0.9,-0.4 -1.8,-0.6 -2.7,-0.6 -1.3,0 -2.4,0.4 -3.1,1.2 -0.8,0.8 -1.2,1.9 -1.2,3.3 0,1.5 0.4,2.6 1.1,3.4 0.7,0.8 1.8,1.1 3.2,1.1 0.9,0 1.7,-0.1 2.3,-0.4 v -3.5 h -3 v -0.7 z"
                    class="st2"/>
            <path
                    id="path47"
                    d="m 376.3,138 h -0.6 l -2.2,-7.7 c -0.2,-0.6 -0.3,-1.2 -0.4,-1.6 -0.1,0.4 -0.2,0.9 -0.3,1.4 -0.1,0.5 -0.9,3.1 -2.2,7.9 H 370 l -2.7,-10 h 0.7 l 1.8,6.4 c 0.1,0.3 0.1,0.5 0.2,0.7 0.1,0.2 0.1,0.4 0.2,0.6 0,0.2 0.1,0.4 0.1,0.6 0,0.2 0.1,0.4 0.1,0.5 0.1,-0.6 0.3,-1.6 0.7,-2.8 l 1.7,-6.1 h 0.8 l 2,7 c 0.2,0.8 0.4,1.4 0.5,1.9 0.1,-0.3 0.1,-0.7 0.2,-1 0.1,-0.4 0.8,-3 2.1,-7.9 h 0.7 z"
                    class="st2"/>
            <path
                    id="path49"
                    d="m 385.6,134.5 h -4.1 l -1.4,3.5 h -0.8 l 4,-10 h 0.4 l 3.9,10 H 387 Z m -3.8,-0.7 h 3.6 l -1.4,-3.6 c -0.1,-0.3 -0.3,-0.7 -0.4,-1.2 -0.1,0.4 -0.3,0.8 -0.4,1.2 z"
                    class="st2"/>
            <path
                    id="path51"
                    d="m 400.1,138 h -0.7 v -4.9 h -5.8 v 4.9 h -0.7 v -10 h 0.7 v 4.4 h 5.8 V 128 h 0.7 z"
                    class="st2"/>
            <path
                    id="path53"
                    d="m 401.5,130.6 h 0.7 l 1.6,4.2 c 0.5,1.3 0.8,2.1 0.9,2.6 v 0 c 0.2,-0.6 0.5,-1.5 0.9,-2.6 l 1.6,-4.1 h 0.7 l -3.3,8.6 c -0.3,0.7 -0.5,1.2 -0.7,1.4 -0.2,0.2 -0.4,0.4 -0.6,0.6 -0.2,0.1 -0.5,0.2 -0.9,0.2 -0.3,0 -0.5,0 -0.9,-0.1 v -0.6 c 0.3,0.1 0.5,0.1 0.9,0.1 0.2,0 0.4,-0.1 0.6,-0.2 0.2,-0.1 0.3,-0.3 0.5,-0.5 0.1,-0.2 0.3,-0.6 0.5,-1.1 0.2,-0.5 0.3,-0.8 0.4,-1 z"
                    class="st2"/>
            <path
                    id="path55"
                    d="m 415,130.6 v 0.5 l -1.5,0.1 c 0.4,0.5 0.6,1.1 0.6,1.7 0,0.7 -0.2,1.3 -0.7,1.7 -0.5,0.4 -1.1,0.7 -1.9,0.7 -0.3,0 -0.6,0 -0.7,0 -0.3,0.1 -0.5,0.3 -0.6,0.5 -0.1,0.2 -0.2,0.4 -0.2,0.6 0,0.2 0.1,0.4 0.3,0.5 0.2,0.1 0.5,0.2 0.9,0.2 h 1.3 c 0.8,0 1.4,0.2 1.9,0.5 0.4,0.3 0.6,0.8 0.6,1.4 0,0.8 -0.3,1.4 -1,1.8 -0.6,0.4 -1.5,0.6 -2.7,0.6 -0.9,0 -1.7,-0.2 -2.2,-0.5 -0.5,-0.4 -0.8,-0.9 -0.8,-1.5 0,-0.5 0.2,-0.9 0.5,-1.3 0.3,-0.3 0.7,-0.6 1.3,-0.7 -0.2,-0.1 -0.4,-0.2 -0.5,-0.4 -0.1,-0.2 -0.2,-0.4 -0.2,-0.6 0,-0.5 0.3,-0.9 1,-1.3 -0.4,-0.2 -0.8,-0.5 -1,-0.8 -0.2,-0.4 -0.4,-0.8 -0.4,-1.3 0,-0.7 0.2,-1.3 0.7,-1.8 0.5,-0.4 1.1,-0.7 1.9,-0.7 0.5,0 0.9,0 1.1,0.1 z m -6.1,8.6 c 0,1 0.8,1.5 2.3,1.5 2,0 2.9,-0.6 2.9,-1.9 0,-0.4 -0.2,-0.8 -0.5,-1 -0.3,-0.2 -0.8,-0.3 -1.5,-0.3 H 411 c -1.4,0.1 -2.1,0.7 -2.1,1.7 z m 0.6,-6.3 c 0,0.6 0.2,1 0.5,1.3 0.3,0.3 0.8,0.5 1.4,0.5 0.6,0 1.1,-0.2 1.4,-0.5 0.3,-0.3 0.5,-0.8 0.5,-1.4 0,-0.6 -0.2,-1.1 -0.5,-1.4 -0.3,-0.3 -0.8,-0.5 -1.4,-0.5 -0.6,0 -1.1,0.2 -1.4,0.5 -0.3,0.4 -0.5,0.9 -0.5,1.5 z"
                    class="st2"/>
            <path
                    id="path57"
                    d="m 416.4,128.5 c 0,-0.4 0.1,-0.7 0.4,-0.7 0.1,0 0.3,0.1 0.3,0.2 0.1,0.1 0.1,0.3 0.1,0.5 0,0.2 0,0.4 -0.1,0.5 -0.1,0.1 -0.2,0.2 -0.3,0.2 -0.3,-0.1 -0.4,-0.3 -0.4,-0.7 z m 0.8,9.5 h -0.7 v -7.4 h 0.7 z"
                    class="st2"/>
            <path
                    id="path59"
                    d="m 422.6,138.1 c -1.1,0 -1.9,-0.3 -2.5,-1 -0.6,-0.7 -0.9,-1.6 -0.9,-2.8 0,-1.2 0.3,-2.1 0.9,-2.8 0.6,-0.7 1.4,-1.1 2.4,-1.1 0.9,0 1.6,0.3 2.1,0.9 0.5,0.6 0.8,1.4 0.8,2.5 v 0.5 H 420 c 0,1 0.2,1.8 0.7,2.3 0.5,0.5 1.1,0.8 2,0.8 0.4,0 0.8,0 1.1,-0.1 0.3,-0.1 0.7,-0.2 1.2,-0.4 v 0.6 c -0.4,0.2 -0.8,0.3 -1.2,0.4 -0.3,0.2 -0.7,0.2 -1.2,0.2 z m -0.2,-7.1 c -0.7,0 -1.3,0.2 -1.7,0.7 -0.4,0.5 -0.7,1.2 -0.8,2 h 4.6 c 0,-0.9 -0.2,-1.5 -0.6,-2 -0.3,-0.4 -0.8,-0.7 -1.5,-0.7 z"
                    class="st2"/>
            <path
                    id="path61"
                    d="m 432.5,138 v -4.8 c 0,-0.7 -0.2,-1.3 -0.5,-1.6 -0.3,-0.3 -0.8,-0.5 -1.5,-0.5 -0.9,0 -1.5,0.2 -2,0.7 -0.4,0.4 -0.6,1.2 -0.6,2.2 v 4.1 h -0.7 v -7.4 h 0.6 l 0.1,1 v 0 c 0.5,-0.8 1.3,-1.2 2.6,-1.2 1.7,0 2.5,0.9 2.5,2.7 v 4.9 h -0.5 z"
                    class="st2"/>
            <path
                    id="path63"
                    d="m 438.6,138.1 c -1.1,0 -1.9,-0.3 -2.5,-1 -0.6,-0.7 -0.9,-1.6 -0.9,-2.8 0,-1.2 0.3,-2.1 0.9,-2.8 0.6,-0.7 1.4,-1.1 2.4,-1.1 0.9,0 1.6,0.3 2.1,0.9 0.5,0.6 0.8,1.4 0.8,2.5 v 0.5 H 436 c 0,1 0.2,1.8 0.7,2.3 0.5,0.5 1.1,0.8 2,0.8 0.4,0 0.8,0 1.1,-0.1 0.3,-0.1 0.7,-0.2 1.2,-0.4 v 0.6 c -0.4,0.2 -0.8,0.3 -1.2,0.4 -0.4,0.2 -0.8,0.2 -1.2,0.2 z m -0.2,-7.1 c -0.7,0 -1.3,0.2 -1.7,0.7 -0.4,0.5 -0.7,1.2 -0.8,2 h 4.6 c 0,-0.9 -0.2,-1.5 -0.6,-2 -0.3,-0.4 -0.9,-0.7 -1.5,-0.7 z"
                    class="st2"/>
	</g>
        <g
                id="g69">
		<path
                id="path67"
                d="m 441.2,67.3 c 0,-1.6 0.4,-3 1.2,-4.4 0.8,-1.4 1.9,-2.4 3.2,-3.2 1.4,-0.8 2.8,-1.2 4.4,-1.2 1.6,0 3,0.4 4.4,1.2 1.4,0.8 2.5,1.9 3.2,3.2 0.8,1.4 1.2,2.8 1.2,4.4 0,1.5 -0.4,3 -1.1,4.3 -0.8,1.4 -1.8,2.4 -3.2,3.3 -1.4,0.9 -2.9,1.2 -4.5,1.2 -1.6,0 -3.1,-0.4 -4.5,-1.2 -1.4,-0.8 -2.4,-1.9 -3.2,-3.2 -0.7,-1.4 -1.1,-2.9 -1.1,-4.4 z m 1.1,0 c 0,1.4 0.3,2.7 1,3.9 0.7,1.2 1.6,2.1 2.8,2.8 1.2,0.7 2.5,1 3.9,1 1.4,0 2.7,-0.3 3.9,-1 1.2,-0.7 2.1,-1.6 2.8,-2.8 0.7,-1.2 1,-2.5 1,-3.9 0,-1.4 -0.3,-2.6 -1,-3.8 -0.7,-1.2 -1.6,-2.1 -2.8,-2.9 -1.2,-0.7 -2.5,-1.1 -3.9,-1.1 -1.4,0 -2.7,0.3 -3.9,1 -1.2,0.7 -2.1,1.6 -2.8,2.8 -0.7,1.2 -1,2.6 -1,4 z m 10.9,-2.2 c 0,0.6 -0.2,1.2 -0.5,1.6 -0.3,0.5 -0.7,0.8 -1.3,1.1 l 2.8,4.6 h -1.4 l -2.5,-4.2 h -2 v 4.2 h -1.2 V 62.1 h 2.5 c 1.1,0 2,0.2 2.6,0.7 0.7,0.5 1,1.3 1,2.3 z m -4.8,2.2 h 1.3 c 0.7,0 1.3,-0.2 1.7,-0.5 0.4,-0.4 0.6,-0.9 0.6,-1.6 0,-1.3 -0.8,-2 -2.3,-2 h -1.3 z"
                class="st2"/>
	</g>
</g>
    <g
            transform="matrix(2.1065322,0,0,2.1065322,-355.73215,-110.14672)"
            id="Ebene_2">
</g>
    <g
            transform="matrix(2.1065322,0,0,2.1065322,-355.73215,-110.14672)"
            id="Ebene_3">
</g>
    <g
            transform="matrix(2.1065322,0,0,2.1065322,-355.73215,-110.14672)"
            id="Ebene_5">
</g>
</svg>
