<svg data-name="Layer 1" xmlns="http://www.w3.org/2000/svg" viewBox="0 0 275 68.98"><path fill="#57068c" d="M80.81 16.8v-12h3.5v12zm9.44-.21h28.36V.68h-3.5v12.75H93.92v-.06c.06-.32.21-4 4.73-4h-.16V6.14h.12c-8 0-8.36 6.05-8.36 7.29zm32.62-10.36v9.55a3.33 3.33 0 0 1-.85 2.47 3.6 3.6 0 0 1-2.62.84h-.9v2.74h1a11 11 0 0 0 3-.36 5.28 5.28 0 0 0 2.13-1.14 4.71 4.71 0 0 0 1.27-2 9.12 9.12 0 0 0 .42-2.94V6.23zm-44.68.12h-3.5v7.29h-11.3V6.23h-3.43c-6.17.34-7.41 3.79-7.41 7.36v3h7.38a2.9 2.9 0 0 1-.78 1.63 3.61 3.61 0 0 1-2.62.84h-2.3v2.75h2.39a10.86 10.86 0 0 0 3-.36 5.24 5.24 0 0 0 2.12-1.14 4.7 4.7 0 0 0 1.27-2 7.49 7.49 0 0 0 .34-1.6h14.84zm-18.31 7h-4a3.69 3.69 0 0 1 4-4zm91.91-7h-3.5v7.29h-8.89V6.23h-3.43c-6.17.34-7.41 3.79-7.41 7.36v3h7.38a2.87 2.87 0 0 1-.78 1.63 3.61 3.61 0 0 1-2.62.84h-2.3v2.75h2.39a10.91 10.91 0 0 0 3-.36 5.28 5.28 0 0 0 2.12-1.14 4.75 4.75 0 0 0 1.27-2 7.56 7.56 0 0 0 .34-1.6h12.47zm-15.91 7h-4a3.69 3.69 0 0 1 4-4zm49.24-7v7.29h-8.67V6.35H173v7.29h-7.62V6.23h-3.43c-6.17.34-7.41 3.79-7.41 7.36v3h7.38a2.9 2.9 0 0 1-.78 1.63 3.61 3.61 0 0 1-2.63.84h-2.3v2.75h2.4a10.89 10.89 0 0 0 3-.36 5.27 5.27 0 0 0 2.13-1.14 4.72 4.72 0 0 0 1.27-2 7.33 7.33 0 0 0 .34-1.6h23.37V6.35zm-23.31 7h-4a3.69 3.69 0 0 1 4-4zM44.83 6.23h-7V0h-3.5v13.53H23.21v-7.3H10.8v3.26h.1c2.74 0 3.59 1.22 3.59 2.32 0 1.83-2.3 2.63-4.58 2.58H8.7c-5.31 0-5-3.52-5-3.52V6.23H0v5c0 3.38 3.89 5.9 8.17 5.9h2.27c7.72 0 7.53-5.19 7.53-5.19a4.46 4.46 0 0 0-.61-2.46h2.35v7.15h24.78c6.05 0 6.41-4.3 6.41-5.16 0-.01.23-5.24-6.07-5.24zm-.23 7.2h-6.78v-4h6.71c2.46 0 2.81 1.46 2.81 2.05s-.04 1.94-2.74 1.94z"/><circle cx="41.8" cy="3.34" r="1.64" fill="#57068c"/><circle cx="186.79" cy="3.34" r="1.64" fill="#57068c"/><circle cx="18.2" cy="20.2" r="1.63" fill="#57068c"/><circle cx="73.73" cy="20.32" r="1.63" fill="#57068c"/><circle cx="7.36" cy="20.2" r="1.63" fill="#57068c"/><circle cx="11.1" cy="20.2" r="1.63" fill="#57068c"/><circle cx="145.07" cy="20.32" r="1.64" fill="#57068c"/><circle cx="148.81" cy="20.32" r="1.64" fill="#57068c"/><circle cx="171.27" cy="20.32" r="1.64" fill="#57068c"/><circle cx="175.01" cy="20.32" r="1.64" fill="#57068c"/><path fill="#57068c" d="M82.74 3.04a1.37 1.37 0 0 1 .08-.46 1.19 1.19 0 0 1 .18-.4 1.07 1.07 0 0 1 .34-.26 1.33 1.33 0 0 1 .66-.09V.76a2.75 2.75 0 0 0-1.12.18 2.21 2.21 0 0 0-1.2 1.22 2.28 2.28 0 0 0-.17.89v.05h-.7v1.13h3.55V3.11h-1.62v-.07zm22.87 5.83a1.78 1.78 0 0 1 .11-.62 1.54 1.54 0 0 1 .3-.51 1.39 1.39 0 0 1 .45-.34 1.82 1.82 0 0 1 .83-.17v-1.4a3.6 3.6 0 0 0-1.49.24 2.9 2.9 0 0 0-1 .65 3 3 0 0 0-.63 1 3 3 0 0 0-.18 1.15v.07h-1v1.52h4.73v-1.5h-2.15s.03-.06.03-.09zm161.03-2.72h-4.9v3.23h4.86c4.52 0 4.67 3.68 4.73 4a.39.39 0 0 0 0 .05h-17.26V.68h-3.5v15.9H275v-3.15c0-1.2-.34-7.28-8.36-7.28z"/><circle cx="266.39" cy="20.32" r="1.64" fill="#57068c"/><circle cx="200.76" cy="3.34" r="1.64" fill="#57068c"/><circle cx="204.5" cy="3.34" r="1.64" fill="#57068c"/><path fill="#57068c" d="M240.66 6.08h-3.43v7.35h-13.48a3.81 3.81 0 0 1-.13-1 3.76 3.76 0 0 1 .21-1.28 3.25 3.25 0 0 1 .61-1.06 3 3 0 0 1 .93-.72 2.68 2.68 0 0 1 1.19-.26 3.07 3.07 0 0 1 1.56.36 5.68 5.68 0 0 1 1.21 1l2.11-2.27a6.4 6.4 0 0 0-2-1.5 6.61 6.61 0 0 0-2.86-.55 6.53 6.53 0 0 0-2.58.5 6.12 6.12 0 0 0-2 1.36 6.4 6.4 0 0 0-1.8 4.48 6.7 6.7 0 0 0 .07.92h-13V6.23h-4c-7.08 0-8.29 5.19-8.44 7.24v3.12h53.33v-3.16c-.09-3.57-1.33-7.01-7.5-7.35zm-42.33 7.35c0-.5-.14-4.09 4.87-4.09h.53v4.09zm42.4 0v-4.2s4-.3 4 4.21zM126.39 41.14h4L139 61.23h-4.6l-1.82-4.48h-8.44l-1.83 4.48h-4.48zM131 52.88l-2.65-6.47-2.65 6.47zm10-11.6h9.26a7.2 7.2 0 0 1 5.22 1.77 4.57 4.57 0 0 1 1.37 3.39v.06a4.64 4.64 0 0 1-2.62 4.3c2.31.88 3.74 2.23 3.74 4.9v.06c0 3.65-3 5.47-7.47 5.47H141zm8.32 8.07c1.94 0 3.17-.63 3.17-2.11v-.01c0-1.31-1-2.05-2.88-2.05h-4.33v4.22zm1.17 8c1.94 0 3.11-.68 3.11-2.17v-.05c0-1.34-1-2.17-3.25-2.17h-5.07v4.39zm9.17-4.67v-11.4H164v11.29c0 3.25 1.63 4.93 4.31 4.93s4.3-1.63 4.3-4.79V41.28H177v11.26c0 6-3.39 9-8.75 9s-8.64-3-8.64-8.86m26.52-11.4h7.78c6.27 0 10.6 4.31 10.6 9.92v.03c0 5.62-4.33 10-10.6 10h-7.78zm7.78 16a5.69 5.69 0 0 0 6-6v-.05a5.73 5.73 0 0 0-6-6h-3.39v12zM206.66 41.28h4.39v7.9h8.1v-7.9h4.38v19.96h-4.38v-8.01h-8.1v8.01h-4.39V41.28zM234.44 41.14h4L247 61.23h-4.59l-1.83-4.48h-8.43l-1.79 4.48h-4.47zm4.61 11.74l-2.65-6.47-2.65 6.47zm10.34-11.6h9.26a7.2 7.2 0 0 1 5.22 1.77 4.57 4.57 0 0 1 1.37 3.39v.06a4.64 4.64 0 0 1-2.62 4.3c2.31.88 3.73 2.23 3.73 4.9v.06c0 3.65-3 5.47-7.47 5.47h-9.49zm8.32 8.07c1.94 0 3.16-.63 3.16-2.11v-.01c0-1.31-1-2.05-2.88-2.05h-4.33v4.22zm1.17 8c1.94 0 3.11-.68 3.11-2.17v-.05c0-1.34-1-2.17-3.25-2.17h-5.07v4.39zM268.59 41.28h4.39v19.96h-4.39zm-156.58-7.34h.76v35.04h-.76zM44.16 41.35h4l9.32 12.26V41.35h4.32v19.88h-3.68L48.48 48.6v12.63h-4.32zm27.52 12.06L64 41.35h5.12l4.75 8 4.84-8h5l-7.65 12v7.88h-4.38zm13.9-.69V41.35H90v11.26c0 3.24 1.62 4.92 4.29 4.92s4.29-1.62 4.29-4.78v-11.4h4.38v11.23c0 6-3.38 9-8.73 9s-8.65-3-8.65-8.86z"/><path d="M3.85 37.94h24.23V67.8H3.85z" fill="#fff"/><path fill="#57068c" d="M35.07 68.98H0v-35h35v35zm-18.73-4.1a.37.37 0 0 0 .69 0l1.22-9.71h-3l1.06 9.71zm3-10.41V53h-5.1v1.47zm-1.46-2.19c6.41.23 6.87-5.61 6.89-7.8 0-.13-.06-.14-.09-.05a6.14 6.14 0 0 1-3.34 3.08 6 6 0 0 0-3.56 4.72.06.06 0 0 0 .06.05zm-.7-.42c1-4.87 5-5 5.33-5.91.55-1.44-.46-4-.72-4.3h-.07a8.63 8.63 0 0 1-2 2.82c-.9.72-4.34 3.27-2.58 7.37-.07.07-.02.06-.01.02zm-.7.2c-2.15-4.59 2.14-7.55 2.85-8.19.1-.09.07-.17.07-.28a10.76 10.76 0 0 0-1.1-4.11h-.09c-.37 1.43-2.32 3.55-2.71 4-3.32 3.94-2.56 6.34.91 8.61-.01.05.05.02.02-.03zm-1 .16c-3.59-2.14-3.23-5.2-1.75-7.45a.32.32 0 0 0 0-.22 8.61 8.61 0 0 0-.89-2.26c-.06-.09-.12-.09-.12 0A12.3 12.3 0 0 1 11 46.18c-1.13 1.88-1.14 6 4.49 6.12.02 0 .03-.07-.02-.07z"/></svg>